<svg xmlns="http://www.w3.org/2000/svg" width="372" height="250" fill="none" preserveAspectRatio="none"
    viewBox="0 0 372 212.182">
    <path fill="#090b4c"
        d="M-93.331 7.829c.125-4.33 3.667-7.775 7.991-7.775L159.054.029a3.998 3.998 0 0 1 3.553 2.168l1.645 3.193a3.997 3.997 0 0 0 3.553 2.166h13.054a3.998 3.998 0 0 0 3.552-2.168l1.647-3.194A3.996 3.996 0 0 1 189.61.027L463.031 0c4.506-.001 8.122 3.726 7.991 8.237l-5.691 195.76c-.125 4.33-3.667 7.774-7.991 7.775l-273.885.027a3.996 3.996 0 0 1-3.552-2.167l-1.646-3.193a3.995 3.995 0 0 0-3.552-2.166l-13.055.001a3.996 3.996 0 0 0-3.552 2.168l-1.646 3.192a3.998 3.998 0 0 1-3.553 2.168l-243.93.024c-4.506.001-8.122-3.726-7.991-8.237l5.691-195.76z" />
</svg>