<svg width="232" height="232" viewBox="0 0 232 232" fill="none" xmlns="http://www.w3.org/2000/svg">
<rect x="0.5" y="0.5" width="231" height="231" rx="11.5" stroke="#E4E5E7"/>
<path d="M172.417 40.0006C173.118 39.9994 173.583 40.0643 173.898 40.1953C174.214 40.3263 174.379 40.523 174.479 40.7858C174.582 41.0528 174.637 41.2811 174.367 41.8451C174.097 42.4091 173.502 43.309 172.299 44.9217C169.893 48.1472 165.061 54.2226 155.56 66.1532C146.764 77.1989 139.643 86.3112 139.734 86.4028C139.883 86.5534 156.505 80.8665 173.706 74.779C177.357 73.4869 179.861 72.7348 181.486 72.4806C182.299 72.3536 182.893 72.3516 183.3 72.4674C183.708 72.5839 183.929 72.8198 183.999 73.1694C184.053 73.4427 182.48 75.0816 179.586 77.7992C176.693 80.5167 172.478 84.313 167.25 88.8985C157.942 97.0629 150.043 104.013 149.697 104.344C149.351 104.676 145.024 108.465 140.082 112.765C135.14 117.065 127.052 124.145 122.11 128.498C117.168 132.851 112.061 137.319 110.761 138.427C109.462 139.536 104.235 144.114 99.1451 148.599C90.0639 156.603 76.9617 168.085 58.761 183.99C53.7193 188.395 49.3362 192 49.0211 192C48.7058 192 48.2818 191.566 48.0789 191.035C47.8751 190.504 48.08 189.465 48.5318 188.728C48.9839 187.99 58.1453 176.432 68.8905 163.042C111.612 109.804 115.733 104.641 115.733 104.358C115.733 104.196 114.494 104.804 112.979 105.707C111.465 106.611 106.052 109.841 100.95 112.886C76.4095 127.531 57.353 138.855 56.2463 139.449C55.7809 139.699 55.4141 139.82 55.0686 139.808C54.723 139.794 54.3987 139.649 54.0168 139.368C53.707 139.141 53.4701 138.976 53.5865 138.534C53.7026 138.093 54.1722 137.376 55.2747 136.044C57.4799 133.379 62.2175 128.254 71.7302 117.962C79.2547 109.82 91.0978 96.9992 98.048 89.4697C104.998 81.9401 112.283 74.0756 114.236 71.9929C116.19 69.9103 121.272 64.4051 125.53 59.7592C129.787 55.1133 134.085 50.5351 135.082 49.5849C136.078 48.6348 136.84 47.6882 136.776 47.4822C136.71 47.2764 137.363 46.4442 138.225 45.6333C138.571 45.3074 138.91 45.0442 139.35 44.8141C139.791 44.5839 140.335 44.3873 141.091 44.1974C142.603 43.8176 144.967 43.4626 149.068 42.9105C154.169 42.2238 161.213 41.2758 164.72 40.8033C168.678 40.2702 171.017 40.0025 172.418 40L172.417 40.0006Z" fill="black"/>
</svg>
