<svg width="845" height="233" viewBox="0 0 845 233" fill="none" xmlns="http://www.w3.org/2000/svg">
<path d="M199.094 151.768C199.094 157.29 194.616 161.768 189.094 161.768H78.9065C73.3836 161.768 68.9065 157.29 68.9065 151.768V81C68.9065 75.4771 73.3836 71 78.9065 71H189.094C194.616 71 199.094 75.4772 199.094 81V151.768Z" fill="#143264"/>
<path fill-rule="evenodd" clip-rule="evenodd" d="M125.894 141.137C124.052 144.097 120.149 144.986 117.207 143.115V143.115C114.307 141.271 113.433 137.436 115.247 134.517L141.91 91.6146C143.739 88.6713 147.608 87.7673 150.552 89.595V89.595C153.499 91.4244 154.403 95.2973 152.571 98.2427L125.894 141.137ZM180.466 98.2427C182.298 95.2973 181.394 91.4244 178.447 89.595V89.595C175.503 87.7673 171.635 88.6713 169.805 91.6146L143.142 134.517C141.328 137.436 142.202 141.271 145.102 143.115V143.115C148.044 144.986 151.947 144.097 153.789 141.137L180.466 98.2427ZM93.4773 102.26C88.751 102.26 84.9196 106.091 84.9196 110.818C84.9196 115.544 88.751 119.375 93.4773 119.375C98.2036 119.375 102.035 115.544 102.035 110.818C102.035 108.548 101.133 106.371 99.5286 104.766C97.9237 103.162 95.747 102.26 93.4773 102.26ZM85.5712 134.634C86.8958 131.436 90.0163 129.351 93.4776 129.351C95.7472 129.351 97.9239 130.252 99.5288 131.857C101.134 133.462 102.035 135.639 102.035 137.908C102.035 141.37 99.9503 144.49 96.7525 145.815C93.5547 147.139 89.8738 146.407 87.4263 143.96C84.9788 141.512 84.2466 137.831 85.5712 134.634Z" fill="#50D673"/>
<path d="M286.585 98.8969H268.679V147.033H255.083V98.8969H237.094V86.6501H286.585V98.8969Z" fill="#143264"/>
<path d="M305.346 147.884C301.643 147.884 298.354 147.288 295.48 146.098C292.607 144.85 290.147 143.178 288.102 141.08C286.113 138.982 284.593 136.573 283.543 133.851C282.493 131.073 281.968 128.181 281.968 125.176C281.968 120.867 282.879 116.955 284.703 113.44C286.582 109.868 289.263 107.005 292.745 104.85C296.227 102.639 300.427 101.533 305.346 101.533C310.264 101.533 314.437 102.611 317.864 104.765C321.346 106.92 323.998 109.755 325.822 113.27C327.646 116.728 328.558 120.499 328.558 124.581C328.558 125.375 328.503 126.169 328.392 126.962C328.337 127.699 328.282 128.351 328.226 128.918H296.061C296.227 130.903 296.752 132.575 297.636 133.936C298.575 135.297 299.764 136.346 301.201 137.083C302.638 137.763 304.157 138.103 305.76 138.103C307.75 138.103 309.601 137.621 311.315 136.658C313.083 135.694 314.299 134.39 314.962 132.745L326.237 135.977C325.131 138.302 323.556 140.371 321.511 142.186C319.522 143.943 317.145 145.332 314.382 146.353C311.674 147.374 308.662 147.884 305.346 147.884ZM295.729 120.584H314.631C314.409 118.713 313.884 117.097 313.055 115.736C312.226 114.319 311.121 113.241 309.739 112.504C308.358 111.711 306.838 111.314 305.18 111.314C303.467 111.314 301.919 111.711 300.537 112.504C299.211 113.241 298.133 114.319 297.304 115.736C296.475 117.097 295.95 118.713 295.729 120.584Z" fill="#143264"/>
<path d="M331.834 133.681C331.834 130.733 332.635 128.153 334.238 125.942C335.841 123.731 338.051 122.001 340.87 120.754C343.689 119.45 346.922 118.798 350.569 118.798C352.338 118.798 354.079 118.968 355.792 119.308C357.505 119.592 358.998 120.017 360.269 120.584V118.628C360.269 116.19 359.55 114.319 358.113 113.015C356.676 111.711 354.493 111.059 351.564 111.059C349.132 111.059 346.839 111.484 344.683 112.334C342.583 113.185 340.345 114.404 337.968 115.991L333.989 107.317C336.863 105.389 339.848 103.943 342.943 102.979C346.093 102.015 349.409 101.533 352.891 101.533C359.412 101.533 364.469 103.149 368.062 106.381C371.709 109.556 373.533 114.177 373.533 120.244V131.895C373.533 133.256 373.726 134.22 374.113 134.787C374.555 135.297 375.302 135.609 376.352 135.722V147.033C375.246 147.26 374.196 147.43 373.201 147.544C372.262 147.657 371.433 147.714 370.714 147.714C368.227 147.714 366.321 147.203 364.994 146.183C363.723 145.162 362.922 143.773 362.59 142.016L362.341 140.059C360.407 142.611 358.086 144.567 355.378 145.928C352.725 147.232 349.934 147.884 347.005 147.884C344.131 147.884 341.533 147.26 339.212 146.013C336.946 144.765 335.15 143.064 333.823 140.91C332.497 138.755 331.834 136.346 331.834 133.681ZM358.196 135.382C358.804 134.872 359.302 134.305 359.689 133.681C360.075 133.057 360.269 132.462 360.269 131.895V127.898C359.164 127.444 357.92 127.104 356.538 126.877C355.212 126.594 353.968 126.452 352.808 126.452C350.376 126.452 348.359 127.019 346.756 128.153C345.153 129.23 344.352 130.676 344.352 132.49C344.352 133.511 344.628 134.446 345.181 135.297C345.734 136.147 346.48 136.828 347.419 137.338C348.414 137.848 349.575 138.103 350.901 138.103C352.227 138.103 353.554 137.848 354.88 137.338C356.207 136.828 357.312 136.176 358.196 135.382Z" fill="#143264"/>
<path d="M451.952 147.033H438.688V121.945C438.688 119.053 438.163 116.927 437.113 115.566C436.063 114.205 434.709 113.525 433.051 113.525C431.282 113.525 429.541 114.262 427.828 115.736C426.115 117.21 424.899 119.11 424.18 121.434V147.033H410.916V121.945C410.916 118.996 410.391 116.87 409.341 115.566C408.291 114.205 406.937 113.525 405.279 113.525C403.566 113.525 401.852 114.262 400.139 115.736C398.426 117.21 397.182 119.11 396.408 121.434V147.033H383.144V102.384H395.082V109.868C396.685 107.203 398.84 105.162 401.548 103.745C404.312 102.27 407.517 101.533 411.165 101.533C414.757 101.533 417.521 102.412 419.455 104.17C421.389 105.871 422.633 107.883 423.186 110.208C424.844 107.43 427.027 105.304 429.735 103.83C432.498 102.299 435.593 101.533 439.02 101.533C441.783 101.533 444.021 102.072 445.735 103.149C447.448 104.17 448.747 105.531 449.631 107.231C450.515 108.932 451.123 110.775 451.455 112.759C451.786 114.687 451.952 116.587 451.952 118.458V147.033Z" fill="#143264"/>
<path d="M731.576 133.681C731.576 130.733 732.377 128.153 733.98 125.942C735.583 123.731 737.793 122.001 740.612 120.754C743.431 119.45 746.664 118.798 750.311 118.798C752.08 118.798 753.821 118.968 755.534 119.308C757.247 119.592 758.74 120.017 760.011 120.584V118.628C760.011 116.19 759.292 114.319 757.855 113.015C756.418 111.711 754.235 111.059 751.306 111.059C748.874 111.059 746.581 111.484 744.425 112.334C742.325 113.185 740.087 114.404 737.71 115.991L733.731 107.316C736.605 105.389 739.589 103.943 742.684 102.979C745.835 102.015 749.151 101.533 752.633 101.533C759.154 101.533 764.211 103.149 767.803 106.381C771.451 109.556 773.275 114.177 773.275 120.244V131.895C773.275 133.256 773.468 134.22 773.855 134.787C774.297 135.297 775.043 135.609 776.094 135.722V147.033C774.988 147.26 773.938 147.43 772.943 147.544C772.004 147.657 771.175 147.714 770.456 147.714C767.969 147.714 766.062 147.203 764.736 146.183C763.465 145.162 762.664 143.773 762.332 142.016L762.083 140.059C760.149 142.611 757.828 144.567 755.12 145.928C752.467 147.232 749.676 147.884 746.747 147.884C743.873 147.884 741.275 147.26 738.954 146.013C736.688 144.765 734.892 143.064 733.565 140.91C732.239 138.755 731.576 136.346 731.576 133.681ZM757.938 135.382C758.546 134.872 759.044 134.305 759.43 133.681C759.817 133.057 760.011 132.462 760.011 131.895V127.898C758.905 127.444 757.662 127.104 756.28 126.877C754.954 126.594 753.71 126.452 752.55 126.452C750.118 126.452 748.101 127.019 746.498 128.153C744.895 129.23 744.094 130.676 744.094 132.49C744.094 133.511 744.37 134.446 744.923 135.297C745.475 136.147 746.222 136.828 747.161 137.338C748.156 137.848 749.317 138.103 750.643 138.103C751.969 138.103 753.296 137.848 754.622 137.338C755.949 136.828 757.054 136.176 757.938 135.382Z" fill="#143264"/>
<path d="M725.499 147.033H712.235V121.945C712.235 119.053 711.654 116.927 710.494 115.566C709.388 114.205 707.896 113.525 706.017 113.525C705.022 113.525 703.889 113.865 702.618 114.545C701.402 115.169 700.269 116.076 699.219 117.267C698.169 118.458 697.368 119.847 696.815 121.434V147.033H683.551V84.9492H696.815V109.868C698.418 107.203 700.518 105.162 703.115 103.745C705.768 102.27 708.67 101.533 711.82 101.533C714.805 101.533 717.181 102.044 718.95 103.064C720.773 104.085 722.155 105.445 723.095 107.146C724.034 108.791 724.67 110.605 725.001 112.589C725.333 114.574 725.499 116.53 725.499 118.458V147.033Z" fill="#143264"/>
<path d="M659.006 147.884C655.303 147.884 651.683 147.26 648.146 146.013C644.609 144.765 641.625 142.923 639.193 140.485L643.752 131.895C646.405 133.879 648.975 135.382 651.462 136.402C654.004 137.423 656.381 137.933 658.592 137.933C660.305 137.933 661.631 137.65 662.571 137.083C663.51 136.516 663.98 135.637 663.98 134.446C663.98 133.596 663.704 132.944 663.151 132.49C662.599 131.98 661.742 131.526 660.581 131.13C659.476 130.733 658.094 130.307 656.436 129.854C653.12 128.72 650.357 127.614 648.146 126.537C645.935 125.46 644.277 124.156 643.172 122.625C642.067 121.037 641.514 118.996 641.514 116.502C641.514 113.497 642.233 110.888 643.67 108.677C645.162 106.409 647.262 104.652 649.97 103.404C652.678 102.157 655.911 101.533 659.669 101.533C662.654 101.533 665.555 102.015 668.374 102.979C671.248 103.943 673.928 105.559 676.415 107.827L671.276 116.331C668.789 114.574 666.578 113.298 664.643 112.504C662.709 111.711 660.83 111.314 659.006 111.314C658.067 111.314 657.21 111.427 656.436 111.654C655.663 111.881 655.027 112.278 654.53 112.845C654.087 113.355 653.866 114.035 653.866 114.886C653.866 115.736 654.087 116.417 654.53 116.927C655.027 117.437 655.773 117.891 656.768 118.287C657.818 118.628 659.117 119.053 660.664 119.563C664.257 120.64 667.241 121.746 669.618 122.88C671.994 123.957 673.763 125.318 674.923 126.962C676.139 128.55 676.747 130.676 676.747 133.341C676.747 137.877 675.144 141.449 671.939 144.057C668.789 146.608 664.478 147.884 659.006 147.884Z" fill="#143264"/>
<path d="M624.814 147.033L613.456 129.174L608.814 134.021V147.033H595.549V84.9492H608.814V120.839L623.57 102.384H637.58L621.912 121.604L638.907 147.033H624.814Z" fill="#143264"/>
<path d="M573.918 147.033V109.416C573.918 105.803 576.773 102.874 580.295 102.874C583.817 102.874 586.672 105.803 586.672 109.416V147.033H573.918Z" fill="#143264"/>
<path d="M564.392 147.033H551.128V121.945C551.128 119.053 550.548 116.927 549.387 115.566C548.282 114.205 546.79 113.525 544.911 113.525C543.916 113.525 542.783 113.865 541.512 114.545C540.296 115.169 539.163 116.076 538.113 117.267C537.063 118.458 536.261 119.847 535.709 121.434V147.033H522.444V84.9492H535.709V109.868C537.311 107.203 539.411 105.162 542.009 103.745C544.662 102.27 547.563 101.533 550.714 101.533C553.698 101.533 556.075 102.044 557.843 103.064C559.667 104.085 561.049 105.445 561.988 107.146C562.928 108.791 563.563 110.605 563.895 112.589C564.227 114.574 564.392 116.53 564.392 118.458V147.033Z" fill="#143264"/>
<path d="M508.158 104.34C507.992 104.056 507.412 103.631 506.417 103.064C505.422 102.44 504.179 101.788 502.687 101.108C501.194 100.428 499.564 99.8324 497.796 99.3221C496.027 98.8118 494.258 98.5567 492.49 98.5567C490.169 98.5567 488.372 98.9819 487.101 99.8324C485.83 100.626 485.195 101.874 485.195 103.574C485.195 104.935 485.664 106.012 486.604 106.806C487.599 107.6 489.008 108.309 490.832 108.932C492.656 109.499 494.894 110.18 497.547 110.973C501.305 111.994 504.566 113.241 507.329 114.716C510.092 116.133 512.193 117.976 513.63 120.244C515.122 122.512 515.868 125.517 515.868 129.259C515.868 132.66 515.26 135.552 514.044 137.933C512.828 140.258 511.17 142.157 509.07 143.631C507.025 145.049 504.676 146.098 502.023 146.778C499.371 147.402 496.635 147.714 493.816 147.714C490.942 147.714 487.986 147.43 484.946 146.863C481.961 146.24 479.088 145.389 476.324 144.312C473.561 143.178 471.018 141.817 468.697 140.23L474.666 128.068C474.887 128.351 475.606 128.89 476.822 129.684C478.037 130.421 479.53 131.215 481.298 132.065C483.122 132.859 485.139 133.568 487.35 134.191C489.561 134.815 491.799 135.127 494.065 135.127C496.497 135.127 498.293 134.73 499.454 133.936C500.669 133.142 501.277 132.037 501.277 130.619C501.277 129.088 500.642 127.898 499.371 127.047C498.155 126.197 496.469 125.431 494.314 124.751C492.214 124.071 489.782 123.305 487.018 122.455C483.426 121.321 480.442 120.045 478.065 118.628C475.744 117.21 474.003 115.481 472.842 113.44C471.737 111.399 471.184 108.847 471.184 105.786C471.184 101.533 472.151 97.9613 474.086 95.0697C476.075 92.1215 478.728 89.9102 482.044 88.4361C485.36 86.9053 488.98 86.1399 492.904 86.1399C495.668 86.1399 498.321 86.48 500.863 87.1604C503.46 87.8408 505.865 88.6912 508.075 89.7118C510.341 90.7324 512.358 91.7529 514.127 92.7735L508.158 104.34Z" fill="#143264"/>
<path d="M580.295 84.8838C577.716 84.8838 575.39 86.4776 574.403 88.9222C573.416 91.3668 573.962 94.1806 575.786 96.0516C577.609 97.9226 580.352 98.4823 582.735 97.4697C585.118 96.4571 586.672 94.0717 586.672 91.4257C586.672 89.6906 586 88.0267 584.804 86.7998C583.608 85.573 581.986 84.8838 580.295 84.8838Z" fill="#50D673"/>
</svg>
